<svg xmlns="http://www.w3.org/2000/svg" viewBox="0 0 100 100" width="100" height="100">
  <rect width="100" height="100" rx="16" fill="#1a1a2e"/>

  <!-- Figure 1: Apple costume (left) -->
  <ellipse cx="18" cy="68" rx="11" ry="14" fill="#e74c3c"/>
  <circle cx="18" cy="48" r="7" fill="#FDBCB4"/>
  <ellipse cx="18" cy="38" rx="4" ry="6" fill="#27ae60" transform="rotate(-20 18 38)"/>
  <line x1="18" y1="41" x2="18" y2="36" stroke="#795548" stroke-width="1.5"/>
  <line x1="7" y1="64" x2="1" y2="72" stroke="#e74c3c" stroke-width="3.5" stroke-linecap="round"/>
  <line x1="29" y1="64" x2="35" y2="72" stroke="#e74c3c" stroke-width="3.5" stroke-linecap="round"/>
  <line x1="13" y1="80" x2="10" y2="93" stroke="#795548" stroke-width="3" stroke-linecap="round"/>
  <line x1="23" y1="80" x2="26" y2="93" stroke="#795548" stroke-width="3" stroke-linecap="round"/>

  <!-- Figure 2: Ramleela (center) -->
  <rect x="38" y="56" width="24" height="26" rx="4" fill="#e67e22"/>
  <line x1="38" y1="70" x2="62" y2="70" stroke="#f39c12" stroke-width="1.5"/>
  <line x1="38" y1="75" x2="62" y2="75" stroke="#f39c12" stroke-width="1"/>
  <circle cx="50" cy="44" r="7" fill="#FDBCB4"/>
  <polygon points="43,38 46,28 50,36 54,28 57,38" fill="#f1c40f" stroke="#e67e22" stroke-width="0.5"/>
  <circle cx="50" cy="30" r="2" fill="#e74c3c"/>
  <line x1="38" y1="64" x2="28" y2="58" stroke="#e67e22" stroke-width="3.5" stroke-linecap="round"/>
  <line x1="62" y1="64" x2="72" y2="58" stroke="#e67e22" stroke-width="3.5" stroke-linecap="round"/>
  <line x1="44" y1="82" x2="41" y2="94" stroke="#795548" stroke-width="3" stroke-linecap="round"/>
  <line x1="56" y1="82" x2="59" y2="94" stroke="#795548" stroke-width="3" stroke-linecap="round"/>

  <!-- Figure 3: Military (right) -->
  <rect x="69" y="56" width="22" height="26" rx="3" fill="#4a7c59"/>
  <circle cx="80" cy="63" r="1.2" fill="#f1c40f"/>
  <circle cx="80" cy="68" r="1.2" fill="#f1c40f"/>
  <circle cx="80" cy="73" r="1.2" fill="#f1c40f"/>
  <rect x="67" y="56" width="7" height="4" rx="1" fill="#2c5f3a"/>
  <rect x="87" y="56" width="7" height="4" rx="1" fill="#2c5f3a"/>
  <circle cx="80" cy="44" r="7" fill="#FDBCB4"/>
  <rect x="73" y="34" width="14" height="8" rx="3" fill="#2c5f3a"/>
  <rect x="71" y="40" width="18" height="3" rx="1" fill="#1a3d25"/>
  <line x1="69" y1="63" x2="61" y2="57" stroke="#4a7c59" stroke-width="3.5" stroke-linecap="round"/>
  <line x1="91" y1="63" x2="99" y2="57" stroke="#4a7c59" stroke-width="3.5" stroke-linecap="round"/>
  <line x1="75" y1="82" x2="72" y2="94" stroke="#2c5f3a" stroke-width="3" stroke-linecap="round"/>
  <line x1="85" y1="82" x2="88" y2="94" stroke="#2c5f3a" stroke-width="3" stroke-linecap="round"/>
</svg>
