<svg xmlns="http://www.w3.org/2000/svg" viewBox="0 0 270 100" width="270" height="100">
  <rect width="270" height="100" rx="12" fill="#1a1a2e"/>

  <!-- Figure 1: Fruit (apple) costume -->
  <ellipse cx="28" cy="62" rx="13" ry="16" fill="#e74c3c"/>
  <circle cx="28" cy="40" r="8" fill="#FDBCB4"/>
  <ellipse cx="28" cy="30" rx="5" ry="7" fill="#27ae60" transform="rotate(-20 28 30)"/>
  <line x1="28" y1="33" x2="28" y2="28" stroke="#795548" stroke-width="1.5"/>
  <line x1="15" y1="58" x2="6" y2="68" stroke="#e74c3c" stroke-width="4" stroke-linecap="round"/>
  <line x1="41" y1="58" x2="50" y2="68" stroke="#e74c3c" stroke-width="4" stroke-linecap="round"/>
  <line x1="22" y1="76" x2="18" y2="90" stroke="#795548" stroke-width="3.5" stroke-linecap="round"/>
  <line x1="34" y1="76" x2="38" y2="90" stroke="#795548" stroke-width="3.5" stroke-linecap="round"/>

  <!-- Figure 2: Ramleela / Indian character costume -->
  <rect x="55" y="50" width="26" height="28" rx="4" fill="#e67e22"/>
  <line x1="55" y1="65" x2="81" y2="65" stroke="#f39c12" stroke-width="1.5"/>
  <line x1="55" y1="70" x2="81" y2="70" stroke="#f39c12" stroke-width="1"/>
  <circle cx="68" cy="38" r="8" fill="#FDBCB4"/>
  <polygon points="60,32 64,22 68,30 72,22 76,32" fill="#f1c40f" stroke="#e67e22" stroke-width="0.5"/>
  <circle cx="68" cy="24" r="2" fill="#e74c3c"/>
  <line x1="55" y1="58" x2="44" y2="52" stroke="#e67e22" stroke-width="4" stroke-linecap="round"/>
  <line x1="81" y1="58" x2="92" y2="52" stroke="#e67e22" stroke-width="4" stroke-linecap="round"/>
  <line x1="62" y1="78" x2="58" y2="92" stroke="#795548" stroke-width="3.5" stroke-linecap="round"/>
  <line x1="74" y1="78" x2="78" y2="92" stroke="#795548" stroke-width="3.5" stroke-linecap="round"/>

  <!-- Figure 3: Military costume -->
  <rect x="98" y="50" width="26" height="28" rx="3" fill="#4a7c59"/>
  <circle cx="111" cy="57" r="1.5" fill="#f1c40f"/>
  <circle cx="111" cy="63" r="1.5" fill="#f1c40f"/>
  <circle cx="111" cy="69" r="1.5" fill="#f1c40f"/>
  <rect x="96" y="50" width="8" height="5" rx="1" fill="#2c5f3a"/>
  <rect x="120" y="50" width="8" height="5" rx="1" fill="#2c5f3a"/>
  <circle cx="111" cy="38" r="8" fill="#FDBCB4"/>
  <rect x="103" y="28" width="16" height="8" rx="3" fill="#2c5f3a"/>
  <rect x="101" y="34" width="20" height="3" rx="1" fill="#1a3d25"/>
  <line x1="98" y1="58" x2="88" y2="52" stroke="#4a7c59" stroke-width="4" stroke-linecap="round"/>
  <line x1="124" y1="58" x2="134" y2="52" stroke="#4a7c59" stroke-width="4" stroke-linecap="round"/>
  <line x1="105" y1="78" x2="101" y2="92" stroke="#2c5f3a" stroke-width="3.5" stroke-linecap="round"/>
  <line x1="117" y1="78" x2="121" y2="92" stroke="#2c5f3a" stroke-width="3.5" stroke-linecap="round"/>

  <!-- Text -->
  <text x="148" y="44" font-family="Georgia, serif" font-size="19" font-weight="700" fill="#f1c40f" letter-spacing="2">MOD</text>
  <text x="148" y="60" font-family="Georgia, serif" font-size="10" fill="#e0d0ff" letter-spacing="1.5">FANCY DRESS</text>
  <line x1="148" y1="64" x2="262" y2="64" stroke="#f1c40f" stroke-width="0.5" opacity="0.4"/>
  <text x="148" y="76" font-family="Georgia, serif" font-size="8" fill="#a090c0" letter-spacing="1">modfancydress.com</text>
</svg>
